<?xml version="1.0" standalone="no"?>
<!DOCTYPE svg PUBLIC "-//W3C//DTD SVG 20010904//EN"
 "http://www.w3.org/TR/2001/REC-SVG-20010904/DTD/svg10.dtd">
<svg version="1.0" xmlns="http://www.w3.org/2000/svg"
 width="512.000000pt" height="512.000000pt" viewBox="0 0 512.000000 512.000000"
 preserveAspectRatio="xMidYMid meet">
<metadata>
Created by potrace 1.14, written by Peter Selinger 2001-2017
</metadata>
<g transform="translate(0.000000,512.000000) scale(0.100000,-0.100000)"
fill="#000000" stroke="none">
<path d="M560 2557 l0 -2393 490 1 490 0 0 934 c0 514 2 936 4 938 7 7 1105 5
1187 -2 356 -30 502 -132 570 -394 34 -129 38 -181 44 -511 5 -261 12 -459 19
-525 13 -119 81 -425 97 -435 5 -3 253 -6 551 -5 l543 0 3 63 c2 34 -1 62 -5
62 -12 0 -85 71 -110 107 -31 44 -70 164 -78 243 -9 81 -14 297 -15 630 -2
525 -67 764 -260 958 -75 75 -149 127 -262 184 -75 37 -80 42 -58 49 101 29
262 125 357 213 285 263 419 762 327 1212 -77 378 -349 733 -693 905 -166 83
-319 119 -617 148 -49 5 -650 9 -1336 10 l-1248 1 0 -2393z m2380 1550 c19 -4
46 -9 60 -12 14 -3 34 -7 45 -9 93 -18 207 -80 278 -150 53 -54 103 -149 128
-242 28 -105 35 -301 15 -407 -40 -206 -168 -346 -372 -406 -136 -40 -205 -44
-891 -46 l-663 -2 0 44 c-1 24 -1 81 -1 128 0 47 0 317 1 600 l0 515 683 -4
c375 -2 698 -6 717 -9z"/>
</g>
</svg>
